<?xml version="1.0" standalone="no"?>
<!DOCTYPE svg PUBLIC "-//W3C//DTD SVG 20010904//EN"
 "http://www.w3.org/TR/2001/REC-SVG-20010904/DTD/svg10.dtd">
<svg version="1.0" xmlns="http://www.w3.org/2000/svg"
 width="260.000000pt" height="260.000000pt" viewBox="0 0 260.000000 260.000000"
 preserveAspectRatio="xMidYMid meet">
<metadata>
Created by potrace 1.11, written by Peter Selinger 2001-2013
</metadata>
<g transform="translate(0.000000,260.000000) scale(0.100000,-0.100000)"
fill="#000000" stroke="none">
<path d="M0 1300 l0 -1300 1300 0 1300 0 0 1300 0 1300 -1300 0 -1300 0 0
-1300z m826 740 c54 -145 473 -1244 493 -1294 6 -15 11 -8 27 35 11 30 137
363 280 741 l259 688 133 0 c105 0 138 -3 157 -16 l25 -16 0 -859 0 -858 -22
-15 c-16 -11 -46 -16 -101 -16 -131 0 -117 -80 -117 678 -1 548 -3 653 -14
632 -7 -14 -123 -314 -257 -667 l-244 -643 -120 0 -120 0 -197 517 c-109 285
-223 587 -255 672 l-58 155 -3 -659 c-2 -612 -3 -659 -20 -671 -23 -18 -171
-18 -194 0 -17 12 -18 66 -18 871 0 790 1 860 17 877 15 17 31 18 152 16 l135
-3 62 -165z"/>
</g>
</svg>
